<?xml version="1.0" encoding="utf-8"?>
<!-- Generator: Adobe Illustrator 25.4.1, SVG Export Plug-In . SVG Version: 6.00 Build 0)  -->
<svg version="1.1" id="Layer_1" xmlns="http://www.w3.org/2000/svg" xmlns:xlink="http://www.w3.org/1999/xlink" x="0px" y="0px"
	 viewBox="0 0 32.5 14.1" style="enable-background:new 0 0 32.5 14.1;" xml:space="preserve">
<style type="text/css">
	.st0{fill:url(#SVGID_1_);}
	.st1{fill:url(#SVGID_00000084529626182826771060000010511866969420702349_);}
	.st2{fill:url(#SVGID_00000066477172867134144830000000234573325377661110_);}
	.st3{fill:url(#SVGID_00000101081603845058954110000012936134624367681464_);}
	.st4{fill:url(#SVGID_00000163034001198650640410000007327564201719546242_);}
	.st5{fill:url(#SVGID_00000050627042247101657290000001502708927155003784_);}
	.st6{fill:url(#SVGID_00000119796165365419798870000017130181325455354025_);}
	.st7{fill:url(#SVGID_00000089553661702628753580000005678231042899415182_);}
	.st8{fill:url(#SVGID_00000099627146988033614930000014169983383050553499_);}
	.st9{fill:url(#SVGID_00000127036306974811431760000008321477121257012156_);}
	.st10{fill:url(#SVGID_00000148625312019184906650000009512554038386317204_);}
	.st11{fill:url(#SVGID_00000003087131889218756370000016725799207724260537_);}
	.st12{fill:url(#SVGID_00000124140898698248217280000008617402325871197856_);}
	.st13{fill:url(#SVGID_00000098192180545504469730000009876609558518048660_);}
</style>
<g>
	
		<linearGradient id="SVGID_1_" gradientUnits="userSpaceOnUse" x1="7.6484" y1="7.7" x2="12.0566" y2="7.7" gradientTransform="matrix(1 0 0 -1 0 16)">
		<stop  offset="0" style="stop-color:#F8A01D"/>
		<stop  offset="0.7128" style="stop-color:#F26E23"/>
		<stop  offset="1" style="stop-color:#EF5826"/>
	</linearGradient>
	<path class="st0" d="M10.7,2.6c-0.1,0-0.3,0.1-0.3,0.3l-0.2,7.4l0.2,3.4c0,0.2,0.1,0.3,0.3,0.3s0.3-0.1,0.3-0.3l0.2-3.4L11,2.9
		C11,2.7,10.8,2.6,10.7,2.6z"/>
	
		<linearGradient id="SVGID_00000148627854755251682920000003630542197584292998_" gradientUnits="userSpaceOnUse" x1="6.3484" y1="7.6" x2="10.7566" y2="7.6" gradientTransform="matrix(1 0 0 -1 0 16)">
		<stop  offset="0" style="stop-color:#F8A01D"/>
		<stop  offset="0.7128" style="stop-color:#F26E23"/>
		<stop  offset="1" style="stop-color:#EF5826"/>
	</linearGradient>
	<path style="fill:url(#SVGID_00000148627854755251682920000003630542197584292998_);" d="M9.4,14c0.2,0,0.3-0.1,0.3-0.3l0.2-3.4
		L9.7,3.1c0-0.2-0.1-0.3-0.3-0.3S9.1,3,9.1,3.1l-0.2,7.2l0.2,3.4C9.1,13.9,9.2,14,9.4,14z"/>
	
		<linearGradient id="SVGID_00000040550770132123828320000004837361822247110066_" gradientUnits="userSpaceOnUse" x1="-1.1966" y1="5.7" x2="2.7709" y2="5.7" gradientTransform="matrix(1 0 0 -1 0 16)">
		<stop  offset="0" style="stop-color:#F8A01D"/>
		<stop  offset="0.7128" style="stop-color:#F26E23"/>
		<stop  offset="1" style="stop-color:#EF5826"/>
	</linearGradient>
	<path style="fill:url(#SVGID_00000040550770132123828320000004837361822247110066_);" d="M1.5,13.3c0.1,0,0.1-0.1,0.1-0.1L2,10.3
		L1.6,7.4c0-0.1-0.1-0.1-0.1-0.1L1.4,7.4l-0.3,2.9l0.3,2.9C1.4,13.3,1.5,13.3,1.5,13.3z"/>
	
		<linearGradient id="SVGID_00000075845602261260979660000015780301651720565921_" gradientUnits="userSpaceOnUse" x1="11.138" y1="8.2" x2="16.4279" y2="8.2" gradientTransform="matrix(1 0 0 -1 0 16)">
		<stop  offset="0" style="stop-color:#F8A01D"/>
		<stop  offset="0.7128" style="stop-color:#F26E23"/>
		<stop  offset="1" style="stop-color:#EF5826"/>
	</linearGradient>
	<path style="fill:url(#SVGID_00000075845602261260979660000015780301651720565921_);" d="M14.8,14c0.2,0,0.4-0.2,0.4-0.4l0.2-3.3
		L15.2,2c0-0.2-0.2-0.4-0.4-0.4S14.4,1.8,14.4,2l-0.2,8.3l0.2,3.3C14.4,13.8,14.6,14,14.8,14z"/>
	
		<linearGradient id="SVGID_00000169547522701638306860000010306719165338516387_" gradientUnits="userSpaceOnUse" x1="9.8382" y1="7.55" x2="15.1278" y2="7.55" gradientTransform="matrix(1 0 0 -1 0 16)">
		<stop  offset="0" style="stop-color:#F8A01D"/>
		<stop  offset="0.7128" style="stop-color:#F26E23"/>
		<stop  offset="1" style="stop-color:#EF5826"/>
	</linearGradient>
	<path style="fill:url(#SVGID_00000169547522701638306860000010306719165338516387_);" d="M13.5,14c0.2,0,0.4-0.2,0.4-0.4l0.2-3.3
		l-0.2-7c0-0.2-0.2-0.4-0.4-0.4c-0.3,0.1-0.4,0.2-0.4,0.5l-0.2,6.9l0.2,3.3C13.1,13.8,13.3,14,13.5,14z"/>
	
		<linearGradient id="SVGID_00000114781060028006749270000011573358349279028403_" gradientUnits="userSpaceOnUse" x1="0.1036" y1="5.8" x2="4.0709" y2="5.8" gradientTransform="matrix(1 0 0 -1 0 16)">
		<stop  offset="0" style="stop-color:#F8A01D"/>
		<stop  offset="0.7128" style="stop-color:#F26E23"/>
		<stop  offset="1" style="stop-color:#EF5826"/>
	</linearGradient>
	<path style="fill:url(#SVGID_00000114781060028006749270000011573358349279028403_);" d="M2.9,13.8c0,0,0.1-0.1,0.1-0.2l0.3-3.3
		L3,6.8c0-0.1-0.1-0.2-0.2-0.2c0,0.1-0.1,0.1-0.1,0.2l-0.3,3.5l0.3,3.3C2.7,13.7,2.8,13.8,2.9,13.8z"/>
	
		<linearGradient id="SVGID_00000091729039240903781550000011724552487062117302_" gradientUnits="userSpaceOnUse" x1="12.538" y1="8.55" x2="17.8279" y2="8.55" gradientTransform="matrix(1 0 0 -1 0 16)">
		<stop  offset="0" style="stop-color:#F8A01D"/>
		<stop  offset="0.7128" style="stop-color:#F26E23"/>
		<stop  offset="1" style="stop-color:#EF5826"/>
	</linearGradient>
	<path style="fill:url(#SVGID_00000091729039240903781550000011724552487062117302_);" d="M16.2,0.9h-0.1c-0.2,0-0.3,0.2-0.3,0.4
		l-0.2,9l0.2,3.3c0,0.2,0.2,0.4,0.4,0.4s0.4-0.2,0.4-0.4l0.2-3.3l-0.2-9C16.6,1.1,16.4,0.9,16.2,0.9z"/>
	
		<linearGradient id="SVGID_00000073723598745002973250000016622431715638589619_" gradientUnits="userSpaceOnUse" x1="-22.5504" y1="8.95" x2="45.7767" y2="8.95" gradientTransform="matrix(1 0 0 -1 0 16)">
		<stop  offset="0" style="stop-color:#F8A01D"/>
		<stop  offset="0.7128" style="stop-color:#F26E23"/>
		<stop  offset="1" style="stop-color:#EF5826"/>
	</linearGradient>
	<path style="fill:url(#SVGID_00000073723598745002973250000016622431715638589619_);" d="M32.5,10.1c0-2.2-1.8-4-4-4
		c-0.5,0-1.1,0.1-1.5,0.3C26.7,2.8,23.7,0,20,0c-0.2,0-0.3,0-0.5,0c-0.7,0-1.4,0.2-2.1,0.4C17.1,0.5,17,0.6,17,0.9v12.7
		c0,0.2,0.2,0.4,0.4,0.5h11.1C30.7,14.1,32.5,12.3,32.5,10.1z"/>
	
		<linearGradient id="SVGID_00000183208618344328786330000013055313369949280429_" gradientUnits="userSpaceOnUse" x1="4.7931" y1="7.25" x2="9.6423" y2="7.25" gradientTransform="matrix(1 0 0 -1 0 16)">
		<stop  offset="0" style="stop-color:#F8A01D"/>
		<stop  offset="0.7128" style="stop-color:#F26E23"/>
		<stop  offset="1" style="stop-color:#EF5826"/>
	</linearGradient>
	<path style="fill:url(#SVGID_00000183208618344328786330000013055313369949280429_);" d="M8.4,13.8l0.3-3.5L8.4,3.7
		c0-0.2-0.1-0.3-0.3-0.3S7.8,3.5,7.8,3.7l-0.2,6.6l0.2,3.5c0,0.2,0.1,0.3,0.3,0.3C8.2,14.1,8.4,14,8.4,13.8z"/>
	
		<linearGradient id="SVGID_00000180341887977081420730000010236449906764406708_" gradientUnits="userSpaceOnUse" x1="-1.7862" y1="5.7" x2="1.2996" y2="5.7" gradientTransform="matrix(1 0 0 -1 0 16)">
		<stop  offset="0" style="stop-color:#F8A01D"/>
		<stop  offset="0.7128" style="stop-color:#F26E23"/>
		<stop  offset="1" style="stop-color:#EF5826"/>
	</linearGradient>
	<path style="fill:url(#SVGID_00000180341887977081420730000010236449906764406708_);" d="M0.3,12.2c0.1,0,0.1-0.1,0.1-0.1l0.3-1.8
		L0.4,8.5c0-0.1-0.1-0.1-0.1-0.1s-0.1,0-0.1,0.1L0,10.3L0.3,12.2C0.2,12.2,0.3,12.2,0.3,12.2z"/>
	
		<linearGradient id="SVGID_00000159427448744190678350000009709218559807248034_" gradientUnits="userSpaceOnUse" x1="8.438" y1="7.6" x2="13.7279" y2="7.6" gradientTransform="matrix(1 0 0 -1 0 16)">
		<stop  offset="0" style="stop-color:#F8A01D"/>
		<stop  offset="0.7128" style="stop-color:#F26E23"/>
		<stop  offset="1" style="stop-color:#EF5826"/>
	</linearGradient>
	<path style="fill:url(#SVGID_00000159427448744190678350000009709218559807248034_);" d="M12.5,13.7l0.2-3.4l-0.2-7.2
		c0-0.2-0.2-0.4-0.4-0.4s-0.4,0.2-0.4,0.4l-0.2,7.2l0.2,3.4c0,0.2,0.2,0.4,0.4,0.4C12.3,14.1,12.5,13.9,12.5,13.7z"/>
	
		<linearGradient id="SVGID_00000020361959220573844330000007743857713981585595_" gradientUnits="userSpaceOnUse" x1="2.4484" y1="5.6" x2="6.8566" y2="5.6" gradientTransform="matrix(1 0 0 -1 0 16)">
		<stop  offset="0" style="stop-color:#F8A01D"/>
		<stop  offset="0.7128" style="stop-color:#F26E23"/>
		<stop  offset="1" style="stop-color:#EF5826"/>
	</linearGradient>
	<path style="fill:url(#SVGID_00000020361959220573844330000007743857713981585595_);" d="M5.4,14c0.1,0,0.2-0.1,0.2-0.2L6,10.3
		L5.7,7c0-0.1-0.1-0.2-0.2-0.2C5.3,6.8,5.2,6.9,5.2,7L5,10.3l0.2,3.5C5.2,13.9,5.3,14,5.4,14z"/>
	
		<linearGradient id="SVGID_00000131368867844779179260000006735105183807155598_" gradientUnits="userSpaceOnUse" x1="1.0483" y1="5.8" x2="5.4565" y2="5.8" gradientTransform="matrix(1 0 0 -1 0 16)">
		<stop  offset="0" style="stop-color:#F8A01D"/>
		<stop  offset="0.7128" style="stop-color:#F26E23"/>
		<stop  offset="1" style="stop-color:#EF5826"/>
	</linearGradient>
	<path style="fill:url(#SVGID_00000131368867844779179260000006735105183807155598_);" d="M4.1,13.9c0.1,0,0.2-0.1,0.2-0.2l0.3-3.4
		L4.3,6.7c0-0.1-0.1-0.2-0.2-0.2C4,6.5,4,6.6,3.9,6.7l-0.3,3.6l0.3,3.4C3.9,13.8,4,13.9,4.1,13.9z"/>
	
		<linearGradient id="SVGID_00000167394053134419835650000007717376654112758970_" gradientUnits="userSpaceOnUse" x1="3.3933" y1="6.65" x2="8.2422" y2="6.65" gradientTransform="matrix(1 0 0 -1 0 16)">
		<stop  offset="0" style="stop-color:#F8A01D"/>
		<stop  offset="0.7128" style="stop-color:#F26E23"/>
		<stop  offset="1" style="stop-color:#EF5826"/>
	</linearGradient>
	<path style="fill:url(#SVGID_00000167394053134419835650000007717376654112758970_);" d="M6.8,4.7c-0.2,0-0.3,0.1-0.3,0.2l-0.3,5.4
		l0.3,3.5c0,0.1,0.1,0.2,0.2,0.2C6.9,14,7,13.9,7,13.8l0.3-3.5L7,4.9C7,4.8,6.9,4.7,6.8,4.7z"/>
</g>
</svg>
