<?xml version="1.0" encoding="utf-8"?>
<!-- Generator: Adobe Illustrator 25.4.1, SVG Export Plug-In . SVG Version: 6.00 Build 0)  -->
<svg version="1.1" id="Lag_1" xmlns:v="https://vecta.io/nano"
	 xmlns="http://www.w3.org/2000/svg" xmlns:xlink="http://www.w3.org/1999/xlink" x="0px" y="0px" viewBox="0 0 155.6 109.9"
	 style="enable-background:new 0 0 155.6 109.9;" xml:space="preserve">
<style type="text/css">
	.st0{fill:#FF0000;}
	.st1{fill:#FFFFFF;}
</style>
<path class="st0" d="M152.4,17.5c-1.8-6.7-7.1-12-13.8-13.8c-12.1-3.3-60.8-3.3-60.8-3.3S29.1,0.5,17,3.8C10.3,5.6,5,10.9,3.2,17.6
	c-3.7,21.5-5.1,54.3,0.1,74.9c1.8,6.7,7.1,12,13.8,13.8c12.1,3.3,60.8,3.3,60.8,3.3s48.7,0,60.8-3.3c6.7-1.8,12-7.1,13.8-13.8
	C156.4,71,157.6,38.2,152.4,17.5z"/>
<path class="st1" d="M62.3,78.4L102.7,55L62.3,31.6V78.4z"/>
</svg>
